<svg width="415" height="235" xmlns="http://www.w3.org/2000/svg">
 <!-- Created with Method Draw - http://github.com/duopixel/Method-Draw/ -->
 <g>
  <title>background</title>
  <rect fill="#fff" id="canvas_background" height="237" width="417" y="-1" x="-1"/>
  <g display="none" overflow="visible" y="0" x="0" height="100%" width="100%" id="canvasGrid">
   <rect fill="url(#gridpattern)" stroke-width="0" y="0" x="0" height="100%" width="100%"/>
  </g>
 </g>
 <g>
  <title>Layer 1</title>
  <rect transform="rotate(-45 206.9999999999999,253.49999999999994) " id="svg_10" height="313" width="313" y="97" x="50.5" stroke-width="20" stroke="#7f007f" fill="#ffffff"/>
  <rect transform="rotate(-45 209.00000000000003,-12.500000000000021) " fill-opacity="0" id="svg_11" height="313" width="313" y="-169" x="52.5" stroke-width="20" stroke="#ff7f00" fill="#ffffff"/>
  <ellipse stroke="#ffffff" ry="34.500001" rx="34.500001" id="svg_14" cy="189.500001" cx="208.000001" stroke-width="0" fill="#ff7f00"/>
  <ellipse stroke="#ffffff" ry="34.500001" rx="34.500001" id="svg_15" cy="42.500001" cx="208.000001" stroke-width="0" fill="#7f007f"/>
  <rect transform="rotate(-45 -60.00000000000001,-58.499999999999986) " id="svg_18" height="223" width="223" y="-170" x="-171.5" stroke-width="0" stroke="#ffffff" fill="#ffffff"/>
  <ellipse stroke="#ffffff" ry="34.500001" rx="34.500001" id="svg_12" cy="42.500001" cx="43.000001" stroke-width="0" fill="#ff7f00"/>
  <rect transform="rotate(-45 478.99999999999994,-57.50000000000001) " id="svg_19" height="223" width="223" y="-169" x="367.5" stroke-width="0" stroke="#ffffff" fill="#ffffff"/>
  <ellipse stroke="#ffffff" ry="34.500001" rx="34.500001" id="svg_13" cy="42.500001" cx="374.000001" stroke-width="0" fill="#ff7f00"/>
  <rect transform="rotate(-45 -59.00000000000022,292.49999999999994) " id="svg_20" height="223" width="223" y="181" x="-170.5" stroke-width="0" stroke="#ffffff" fill="#ffffff"/>
  <ellipse stroke="#ffffff" ry="34.500001" rx="34.500001" id="svg_16" cy="192.500001" cx="44.000001" stroke-width="0" fill="#7f007f"/>
  <rect transform="rotate(-45 470.99999999999994,292.4999999999999) " id="svg_21" height="223" width="223" y="181" x="359.5" stroke-width="0" stroke="#ffffff" fill="#ffffff"/>
  <ellipse stroke="#ffffff" ry="34.500001" rx="34.500001" id="svg_17" cy="192.500001" cx="367.000001" stroke-width="0" fill="#7f007f"/>
 </g>
</svg>